<svg width="251" height="30" viewBox="0 0 251 30" fill="none" xmlns="http://www.w3.org/2000/svg">
<g clip-path="url(#clip0_10497_1670)">
<path d="M38.2541 0L36.5879 2.80468L34.9216 5.60653L26.6883 19.4609L25.022 16.6562L23.3403 13.8292L28.2283 5.60653H31.5891L33.2553 2.80468H26.562L24.8958 5.60653L21.674 11.025L20.0078 8.2232L18.4549 5.6066L16.7887 2.80476L15.1224 7.11091e-05L13.4562 2.80476L15.1224 5.6066L18.3417 11.0274L20.0078 13.8292L18.3417 16.6339L16.6625 19.4609L14.9963 16.6562L8.42913 5.60653H5.09668L13.3301 19.4609L14.9963 22.265L16.6625 25.0668L18.3287 22.265L20.0078 19.4357L21.674 16.6338L23.3557 19.4609L25.0219 22.265L26.6882 25.0668L28.3544 22.265L38.254 5.60653L39.9202 2.80468L38.2541 0Z" fill="#107C41"/>
<path d="M24.9242 22.2649L23.258 19.4608L21.5763 16.6338L19.9102 19.4356L21.5919 22.2649L23.2581 25.0668H26.5906L24.9242 22.2649Z" fill="#21A366"/>
<path d="M15.0245 5.60653L13.3583 2.80469H0L1.66626 5.60653L11.5658 22.265L13.232 25.0668H16.5645L14.8983 22.265L13.232 19.4609L4.99871 5.60653H11.692L16.5774 13.8292H19.9099L18.2436 11.0273L15.0245 5.60653Z" fill="#21A366"/>
<path d="M34.8239 0.000142218H24.7981L23.1319 2.80483L21.4657 5.60667L19.9102 8.22327L21.5763 11.0251L24.7981 5.6066L26.4643 2.80476H33.1576L31.4914 5.6066L24.9243 16.6562L26.5906 19.4608L34.8239 5.60652L36.4901 2.80468L38.1564 0L34.8239 0.000142218Z" fill="#33C481"/>
<path d="M14.8984 16.6561L16.5646 19.4608L18.2438 16.6338L19.91 13.8291H16.5775L14.8984 16.6561Z" fill="#33C481"/>
<path d="M11.692 0H1.66626L0 2.80468H13.3583L15.0245 0H11.692Z" fill="#33C481"/>
<path d="M54.7844 23.4997H47.5469V1.41162H54.7844C58.2953 1.41162 61.0693 2.41653 63.1049 4.42515C65.1406 6.43413 66.1584 9.11117 66.1584 12.4557C66.1584 15.78 65.1406 18.4511 63.1049 20.4706C61.0693 22.4902 58.2953 23.4997 54.7844 23.4997ZM50.3581 3.93599V20.9754H54.7844C57.4773 20.9754 59.5665 20.2079 61.0529 18.6721C62.5392 17.1366 63.2828 15.0644 63.2828 12.4557C63.2828 9.82639 62.5445 7.74943 61.0693 6.22372C59.5937 4.69878 57.4989 3.93599 54.7844 3.93599H50.3581Z" fill="white"/>
<path d="M83.8976 21.1333H84.7376V23.4999H83.2836C82.2277 23.4999 81.4742 23.2898 81.0217 22.8686C80.5691 22.4481 80.332 21.8274 80.3108 21.0072C79.0395 22.7952 77.1978 23.6892 74.7852 23.6892C72.9542 23.6892 71.4838 23.2687 70.3748 22.427C69.265 21.5857 68.7109 20.4391 68.7109 18.9876C68.7109 17.3678 69.2762 16.1272 70.4072 15.2643C71.5382 14.4019 73.1804 13.9706 75.3344 13.9706H80.1813V12.8661C80.1813 11.8143 79.8207 10.9942 79.0991 10.4046C78.3771 9.81624 77.3701 9.52114 76.078 9.52114C74.9359 9.52114 73.9936 9.76867 73.2508 10.2629C72.5072 10.7572 72.0495 11.4146 71.8772 12.2348H69.2275C69.4218 10.6572 70.1374 9.42664 71.3767 8.54318C72.6152 7.65972 74.225 7.21777 76.2072 7.21777C78.318 7.21777 79.9499 7.71788 81.1024 8.71654C82.2546 9.71598 82.8311 11.1519 82.8311 13.0238V20.0604C82.8311 20.4817 82.9118 20.7655 83.0734 20.9123C83.2349 21.0599 83.5098 21.1333 83.8976 21.1333ZM80.1814 16.9365V16.1479H75.0763C72.6208 16.1479 71.3928 17.0423 71.3928 18.83C71.3928 19.6295 71.7158 20.2709 72.3623 20.7547C73.0087 21.2388 73.881 21.4804 74.9796 21.4804C76.5951 21.4804 77.8659 21.0654 78.7922 20.2342C79.7181 19.4035 80.1814 18.3045 80.1814 16.9365Z" fill="white"/>
<path d="M88.0011 19.3032V9.77383H85.0283V7.40725H88.0011V2.89502H90.6508V7.40725H94.9156V9.77383H90.6508V19.2715C90.6508 19.9453 90.7903 20.4236 91.0706 20.7074C91.3504 20.9912 91.8461 21.1334 92.5569 21.1334H95.1742V23.4999H92.2986C90.7475 23.4999 89.6433 23.1638 88.9865 22.4903C88.3289 21.8173 88.0011 20.7547 88.0011 19.3032Z" fill="white"/>
<path d="M111.782 21.1333H112.622V23.4999H111.169C110.113 23.4999 109.359 23.2898 108.907 22.8686C108.454 22.4481 108.217 21.8274 108.196 21.0072C106.925 22.7952 105.083 23.6892 102.67 23.6892C100.839 23.6892 99.369 23.2687 98.26 22.427C97.1502 21.5857 96.5957 20.4391 96.5957 18.9876C96.5957 17.3678 97.1614 16.1272 98.292 15.2643C99.4233 14.4019 101.066 13.9706 103.22 13.9706H108.067V12.8661C108.067 11.8143 107.705 10.9942 106.984 10.4046C106.262 9.81624 105.255 9.52114 103.963 9.52114C102.821 9.52114 101.879 9.76867 101.136 10.2629C100.393 10.7572 99.9343 11.4146 99.7624 12.2348H97.1127C97.3066 10.6572 98.0226 9.42664 99.2615 8.54318C100.5 7.65972 102.11 7.21777 104.092 7.21777C106.203 7.21777 107.835 7.71788 108.988 8.71654C110.14 9.71598 110.716 11.1519 110.716 13.0238V20.0604C110.716 20.4817 110.797 20.7655 110.959 20.9123C111.12 21.0599 111.395 21.1333 111.782 21.1333ZM108.067 16.9365V16.1479H102.961C100.506 16.1479 99.2779 17.0423 99.2779 18.83C99.2779 19.6295 99.6009 20.2709 100.247 20.7547C100.893 21.2388 101.766 21.4804 102.864 21.4804C104.48 21.4804 105.751 21.0654 106.677 20.2342C107.603 19.4035 108.067 18.3045 108.067 16.9365Z" fill="white"/>
<path d="M127.648 10.184L128.003 7.40707H130.298V22.7108C130.298 27.5701 127.572 30 122.122 30C119.99 30 118.25 29.5268 116.904 28.5801C115.557 27.6333 114.777 26.2869 114.562 24.541H117.275C117.49 25.551 118.04 26.3286 118.923 26.876C119.807 27.423 120.937 27.6966 122.316 27.6966C125.87 27.6966 127.648 26.0031 127.648 22.6163V20.7229C126.463 22.7006 124.578 23.6891 121.993 23.6891C119.667 23.6891 117.765 22.9583 116.29 21.4963C114.814 20.0342 114.076 18.0202 114.076 15.4536C114.076 13.0132 114.82 11.0308 116.306 9.5055C117.792 7.98056 119.687 7.21777 121.993 7.21777C124.621 7.21777 126.505 8.20669 127.648 10.184ZM122.252 21.3858C123.867 21.3858 125.176 20.8388 126.177 19.7449C127.179 18.6514 127.68 17.2417 127.68 15.5165C127.68 13.7495 127.179 12.309 126.177 11.1936C125.176 10.079 123.867 9.52107 122.252 9.52107C120.614 9.52107 119.295 10.0735 118.293 11.1779C117.291 12.2824 116.791 13.7077 116.791 15.4536C116.791 17.1994 117.291 18.6244 118.293 19.7288C119.295 20.8333 120.614 21.3858 122.252 21.3858Z" fill="white"/>
<path d="M148.488 21.1333H149.328V23.4999H147.874C146.819 23.4999 146.065 23.2898 145.612 22.8686C145.16 22.4481 144.923 21.8274 144.902 21.0072C143.63 22.7952 141.789 23.6892 139.376 23.6892C137.545 23.6892 136.075 23.2687 134.966 22.427C133.856 21.5857 133.302 20.4391 133.302 18.9876C133.302 17.3678 133.867 16.1272 134.998 15.2643C136.129 14.4019 137.771 13.9706 139.926 13.9706H144.773V12.8661C144.773 11.8143 144.412 10.9942 143.69 10.4046C142.968 9.81624 141.961 9.52114 140.669 9.52114C139.527 9.52114 138.584 9.76867 137.841 10.2629C137.098 10.7572 136.64 11.4146 136.468 12.2348H133.819C134.013 10.6572 134.728 9.42664 135.968 8.54318C137.206 7.65972 138.816 7.21777 140.798 7.21777C142.909 7.21777 144.541 7.71788 145.693 8.71654C146.846 9.71598 147.422 11.1519 147.422 13.0238V20.0604C147.422 20.4817 147.503 20.7655 147.664 20.9123C147.826 21.0599 148.101 21.1333 148.488 21.1333ZM144.773 16.9365V16.1479H139.667C137.211 16.1479 135.984 17.0423 135.984 18.83C135.984 19.6295 136.307 20.2709 136.953 20.7547C137.599 21.2388 138.472 21.4804 139.57 21.4804C141.186 21.4804 142.457 21.0654 143.383 20.2342C144.309 19.4035 144.773 18.3045 144.773 16.9365Z" fill="white"/>
<path d="M150.847 9.77381V7.40723H163.966V9.36351L153.949 21.1333H164.386V23.4999H150.427V21.5436L160.411 9.77381H150.847Z" fill="white"/>
<path d="M173.659 23.6891C171.204 23.6891 169.227 22.9317 167.73 21.4174C166.233 19.9026 165.484 17.9147 165.484 15.4536C165.484 13.0132 166.206 11.0308 167.65 9.5055C169.092 7.98056 170.978 7.21777 173.304 7.21777C175.652 7.21777 177.526 7.8963 178.926 9.25291C180.327 10.61 181.059 12.4769 181.124 14.854C181.124 15.0855 181.102 15.4536 181.059 15.9584H168.263V16.1794C168.306 17.7363 168.797 18.993 169.734 19.9499C170.671 20.9075 171.915 21.3858 173.466 21.3858C174.65 21.3858 175.657 21.0968 176.487 20.5179C177.316 19.9397 177.871 19.1351 178.151 18.104H180.833C180.51 19.7448 179.702 21.0859 178.41 22.1271C177.117 23.1683 175.534 23.6891 173.659 23.6891ZM168.425 13.8128H178.28C178.151 12.4456 177.644 11.3829 176.761 10.6255C175.878 9.86815 174.736 9.48985 173.336 9.48985C172.087 9.48985 170.988 9.88963 170.041 10.6887C169.092 11.4883 168.554 12.53 168.425 13.8128Z" fill="white"/>
<path d="M188.605 1.41113L194.648 21.2595L200.755 1.41113H202.532L208.478 21.2595L214.585 1.41113H216.395L209.512 23.5H207.412L201.563 4.2513L195.714 23.5H193.614L186.764 1.41113H188.605Z" fill="#33C481"/>
<path d="M223.891 1.41113H225.959L234.683 23.5H232.809L230.095 16.7473H219.69L216.975 23.5H215.166L223.891 1.41113ZM229.578 15.1692L224.892 3.27291L220.207 15.1692H229.578Z" fill="#33C481"/>
<path d="M251 1.41113V2.98911H239.302V11.7298H249.061V13.3078H239.302V23.5H237.558V1.41113H251Z" fill="#33C481"/>
</g>
<defs>
<clipPath id="clip0_10497_1670">
<rect width="251" height="30" fill="white"/>
</clipPath>
</defs>
</svg>
