<svg width="36" height="36" viewBox="0 0 36 36" fill="none" xmlns="http://www.w3.org/2000/svg">
<g clip-path="url(#clip0_2466_20806)">
<path d="M12.3898 0.88767C11.1987 1.27602 10.0622 1.78497 8.99463 2.39992H27.0055C25.938 1.78495 24.8015 1.27602 23.6104 0.88767C21.8444 0.311418 19.9587 0 18.0001 0C16.0414 0 14.1557 0.311418 12.3898 0.88767Z" fill="#FFC318"/>
<path d="M4.84082 5.68796H8.9227L10.4383 7.20021H32.4329C32.0361 6.67278 31.6108 6.16804 31.1593 5.68796C30.8716 5.38171 30.5731 5.08557 30.2647 4.80029H8.03308H5.73538C5.42698 5.08557 5.12846 5.38171 4.84082 5.68796Z" fill="#FFC318"/>
<path d="M4.97144 10.4878H8.92248L11.0634 12.0003H35.013C34.8306 11.4849 34.6253 10.9804 34.3979 10.4878C34.2596 10.1874 34.113 9.8913 33.9588 9.6001H12.8434H8.65896H2.04117C1.88697 9.8913 1.74043 10.1874 1.60205 10.4878L4.97144 10.4878Z" fill="#FFC318"/>
<path d="M4.74216 15.2876H8.92247L11.0634 16.7998H36C35.9664 16.2896 35.9115 15.7852 35.8362 15.2876C35.7909 14.9892 35.7383 14.6933 35.6787 14.3999H17.654H13.4696H3.85303H0.321231C0.261683 14.6933 0.209043 14.9892 0.163818 15.2876L4.74216 15.2876Z" fill="#FFC318"/>
<path d="M8.92245 20.0879L11.0634 21.6001H35.6787C35.7798 21.1033 35.8604 20.5988 35.9194 20.0879C35.9535 19.7942 35.9805 19.4981 36 19.2002H20.0592H18.2802H8.66145H0C0.0195188 19.4981 0.0464518 19.7942 0.0805646 20.0879H8.92245Z" fill="#FFC318"/>
<path d="M4.73992 24.8877H8.92246L11.0634 26.4002H25.496H33.9588C34.219 25.909 34.4572 25.4045 34.6717 24.8877C34.7931 24.5955 34.907 24.2996 35.013 24H23.0906H15.2488H13.4698H3.85081H0.986938C1.09296 24.2996 1.20688 24.5955 1.32821 24.8877H4.73992Z" fill="#FFC318"/>
<path d="M8.92248 29.6875L11.0634 31.1997H20.6825H30.2647C30.2721 31.1931 30.2792 31.1864 30.2864 31.1797C30.7923 30.71 31.2709 30.2117 31.7199 29.6875C31.9666 29.3995 32.2045 29.1033 32.4329 28.7998H27.9012H18.2783H10.4382H8.65923H3.56714C3.79548 29.1033 4.03344 29.3995 4.28008 29.6875H8.92248Z" fill="#FFC318"/>
<path d="M15.7308 35.8587C16.4741 35.9519 17.2315 36 18.0001 36C20.2328 36 22.3706 35.5951 24.3443 34.8552C24.6497 34.7408 24.9515 34.6182 25.2488 34.4878C25.8525 34.2232 26.4386 33.9266 27.0055 33.6001H23.087H13.4679H8.99463C9.56152 33.9266 10.1477 34.2232 10.7514 34.4878C12.3082 35.1703 13.9805 35.6398 15.7308 35.8587Z" fill="#FFC318"/>
</g>
<defs>
<clipPath id="clip0_2466_20806">
<rect width="36" height="36" fill="white"/>
</clipPath>
</defs>
</svg>
